# xmcd
#
# Track frame offsets:
#	150
#	16804
#	29851
#	45556
#	56900
#	68152
#	84210
#	94028
#	107488
#	124561
#
# Disc length: 1858 seconds
#
# Revision: 1
# Processed by: cddbd v1.5.1PL0 Copyright (c) Steve Scherf et al.
# Submitted via: audiograbber 1.83.01
#
DISCID=7907400a
DTITLE=Ray Price - Good Old Country
DYEAR=1900
DGENRE=Country
TTITLE0=You're The Best Thing That Ever Happened To Me
TTITLE1=City Lights
TTITLE2=I Won't Mention It Again
TTITLE3=My Shoes Keep Walking Back To You
TTITLE4=Crazy Arms
TTITLE5=She's Got To Be A Saint
TTITLE6=Make The World Go Away
TTITLE7=Heartaches By The Number
TTITLE8=For The Good Times
TTITLE9=Night Life
EXTD=
EXTT0=
EXTT1=
EXTT2=
EXTT3=
EXTT4=
EXTT5=
EXTT6=
EXTT7=
EXTT8=
EXTT9=
PLAYORDER=
